#Comment line ignore any data following # character 
#Hierarchical Translation and Rotation (.htr) file 
[Header]	
#Header keywords are followed by a single value 
FileType HTR		#Single word string
DataType HTRS		#Translation followed by rotation and scale data
FileVersion 1		#integer
NumSegments 84		#integer
NumFrames 2		#integer
DataFrameRate 30		#integer, data frame rate in this file
EulerRotationOrder ZYX
CalibrationUnits mm
RotationUnits Degrees
GlobalAxisofGravity Y
BoneLengthAxis Y
ScaleFactor 1.00
[SegmentNames&Hierarchy]
#CHILD	PARENT
MASTER GLOBAL
root MASTER
chest root
L_mid_tent01 root
R_mid_tent01 root
spine01 root
Bip01_Neck chest
L_humerus chest
R_humerus chest
weapon_bone chest
Bip01_Head Bip01_Neck
eye_left_bone Bip01_Head
eye_right_bone Bip01_Head
L_forearm L_humerus
L_front_hand L_forearm
L_weapon_bone L_forearm
L_front_hand01_01 L_front_hand
L_front_hand02_01 L_front_hand
L_front_hand03_01 L_front_hand
L_front_hand01_02 L_front_hand01_01
L_front_hand02_02 L_front_hand02_01
L_front_hand03_02 L_front_hand03_01
R_forearm R_humerus
R_front_hand R_forearm
R_weapon_bone R_forearm
R_front_hand01_01 R_front_hand
R_front_hand02_01 R_front_hand
R_front_hand03_01 R_front_hand
R_front_hand01_02 R_front_hand01_01
R_front_hand02_02 R_front_hand02_01
R_front_hand03_02 R_front_hand03_01
null_rope01_connect L_mid_tent01
Rope1_Seg01 null_rope01_connect
Rope1_Seg02 Rope1_Seg01
Rope1_Seg03 Rope1_Seg02
Rope1_Seg04 Rope1_Seg03
Rope1_Seg05 Rope1_Seg04
Rope1_Seg06 Rope1_Seg05
Rope1_Seg07 Rope1_Seg06
Rope1_Seg09 Rope1_Seg07
L_mid_hand01 Rope1_Seg09
L_mid_hand02 Rope1_Seg09
L_mid_hand03 Rope1_Seg09
null_rope02_connect R_mid_tent01
Rope2_Seg01 null_rope02_connect
Rope2_Seg02 Rope2_Seg01
Rope2_Seg03 Rope2_Seg02
Rope2_Seg04 Rope2_Seg03
Rope2_Seg05 Rope2_Seg04
Rope2_Seg06 Rope2_Seg05
Rope2_Seg07 Rope2_Seg06
Rope2_Seg09 Rope2_Seg07
R_mid_hand01 Rope2_Seg09
R_mid_hand02 Rope2_Seg09
R_mid_hand03 Rope2_Seg09
spine02 spine01
spine03 spine02
pelvis spine03
null_rope03_connect pelvis
null_rope04_connect pelvis
Rope3_Seg01 null_rope03_connect
Rope3_Seg02 Rope3_Seg01
Rope3_Seg03 Rope3_Seg02
Rope3_Seg04 Rope3_Seg03
Rope3_Seg05 Rope3_Seg04
Rope3_Seg06 Rope3_Seg05
Rope3_Seg07 Rope3_Seg06
Rope3_Seg08 Rope3_Seg07
Rope3_Seg09 Rope3_Seg08
R_rear_hand01 Rope3_Seg09
R_rear_hand02 Rope3_Seg09
R_rear_hand03 Rope3_Seg09
Rope4_Seg01 null_rope04_connect
Rope4_Seg02 Rope4_Seg01
Rope4_Seg03 Rope4_Seg02
Rope4_Seg04 Rope4_Seg03
Rope4_Seg05 Rope4_Seg04
Rope4_Seg06 Rope4_Seg05
Rope4_Seg07 Rope4_Seg06
Rope4_Seg08 Rope4_Seg07
Rope4_Seg09 Rope4_Seg08
L_rear_hand01 Rope4_Seg09
L_rear_hand02 Rope4_Seg09
L_rear_hand03 Rope4_Seg09
[BasePosition]
#SegmentName Tx, Ty, Tz, Rx, Ry, Rz, BoneLength
MASTER 0.000000 0.000000 0.000000 -90.000000 0.000000 0.000000 10.000000 
root 0.000000 0.000000 0.000000 0.000000 0.000000 0.000000 10.000000 
chest 0.000000 0.000000 0.000000 0.000000 0.000000 0.000000 10.000000 
L_mid_tent01 0.000000 0.000000 0.000000 0.000000 0.000000 0.000000 10.000000 
R_mid_tent01 0.000000 0.000000 0.000000 0.000000 0.000000 0.000000 10.000000 
spine01 0.000000 0.000000 0.000000 0.000000 0.000000 0.000000 10.000000 
Bip01_Neck 0.000000 0.000000 0.000000 0.000000 0.000000 0.000000 10.000000 
L_humerus 0.000000 0.000000 0.000000 0.000000 0.000000 0.000000 10.000000 
R_humerus 0.000000 0.000000 0.000000 0.000000 0.000000 0.000000 10.000000 
weapon_bone 0.000000 0.000000 0.000000 0.000000 0.000000 0.000000 10.000000 
Bip01_Head 0.000000 0.000000 0.000000 0.000000 0.000000 0.000000 10.000000 
eye_left_bone 0.000000 0.000000 0.000000 0.000000 0.000000 0.000000 10.000000 
eye_right_bone 0.000000 0.000000 0.000000 0.000000 0.000000 0.000000 10.000000 
L_forearm 0.000000 0.000000 0.000000 0.000000 0.000000 0.000000 10.000000 
L_front_hand 0.000000 0.000000 0.000000 0.000000 0.000000 0.000000 10.000000 
L_weapon_bone 0.000000 0.000000 0.000000 0.000000 0.000000 0.000000 10.000000 
L_front_hand01_01 0.000000 0.000000 0.000000 0.000000 0.000000 0.000000 10.000000 
L_front_hand02_01 0.000000 0.000000 0.000000 0.000000 0.000000 0.000000 10.000000 
L_front_hand03_01 0.000000 0.000000 0.000000 0.000000 0.000000 0.000000 10.000000 
L_front_hand01_02 0.000000 0.000000 0.000000 0.000000 0.000000 0.000000 10.000000 
L_front_hand02_02 0.000000 0.000000 0.000000 0.000000 0.000000 0.000000 10.000000 
L_front_hand03_02 0.000000 0.000000 0.000000 0.000000 0.000000 0.000000 10.000000 
R_forearm 0.000000 0.000000 0.000000 0.000000 0.000000 0.000000 10.000000 
R_front_hand 0.000000 0.000000 0.000000 0.000000 0.000000 0.000000 10.000000 
R_weapon_bone 0.000000 0.000000 0.000000 0.000000 0.000000 0.000000 10.000000 
R_front_hand01_01 0.000000 0.000000 0.000000 0.000000 0.000000 0.000000 10.000000 
R_front_hand02_01 0.000000 0.000000 0.000000 0.000000 0.000000 0.000000 10.000000 
R_front_hand03_01 0.000000 0.000000 0.000000 0.000000 0.000000 0.000000 10.000000 
R_front_hand01_02 0.000000 0.000000 0.000000 0.000000 0.000000 0.000000 10.000000 
R_front_hand02_02 0.000000 0.000000 0.000000 0.000000 0.000000 0.000000 10.000000 
R_front_hand03_02 0.000000 0.000000 0.000000 0.000000 0.000000 0.000000 10.000000 
null_rope01_connect 0.000000 0.000000 0.000000 0.000000 0.000000 0.000000 10.000000 
Rope1_Seg01 0.000000 0.000000 0.000000 0.000000 0.000000 0.000000 10.000000 
Rope1_Seg02 0.000000 0.000000 0.000000 0.000000 0.000000 0.000000 10.000000 
Rope1_Seg03 0.000000 0.000000 0.000000 0.000000 0.000000 0.000000 10.000000 
Rope1_Seg04 0.000000 0.000000 0.000000 0.000000 0.000000 0.000000 10.000000 
Rope1_Seg05 0.000000 0.000000 0.000000 0.000000 0.000000 0.000000 10.000000 
Rope1_Seg06 0.000000 0.000000 0.000000 0.000000 0.000000 0.000000 10.000000 
Rope1_Seg07 0.000000 0.000000 0.000000 0.000000 0.000000 0.000000 10.000000 
Rope1_Seg09 0.000000 0.000000 0.000000 0.000000 0.000000 0.000000 10.000000 
L_mid_hand01 0.000000 0.000000 0.000000 0.000000 0.000000 0.000000 10.000000 
L_mid_hand02 0.000000 0.000000 0.000000 0.000000 0.000000 0.000000 10.000000 
L_mid_hand03 0.000000 0.000000 0.000000 0.000000 0.000000 0.000000 10.000000 
null_rope02_connect 0.000000 0.000000 0.000000 0.000000 0.000000 0.000000 10.000000 
Rope2_Seg01 0.000000 0.000000 0.000000 0.000000 0.000000 0.000000 10.000000 
Rope2_Seg02 0.000000 0.000000 0.000000 0.000000 0.000000 0.000000 10.000000 
Rope2_Seg03 0.000000 0.000000 0.000000 0.000000 0.000000 0.000000 10.000000 
Rope2_Seg04 0.000000 0.000000 0.000000 0.000000 0.000000 0.000000 10.000000 
Rope2_Seg05 0.000000 0.000000 0.000000 0.000000 0.000000 0.000000 10.000000 
Rope2_Seg06 0.000000 0.000000 0.000000 0.000000 0.000000 0.000000 10.000000 
Rope2_Seg07 0.000000 0.000000 0.000000 0.000000 0.000000 0.000000 10.000000 
Rope2_Seg09 0.000000 0.000000 0.000000 0.000000 0.000000 0.000000 10.000000 
R_mid_hand01 0.000000 0.000000 0.000000 0.000000 0.000000 0.000000 10.000000 
R_mid_hand02 0.000000 0.000000 0.000000 0.000000 0.000000 0.000000 10.000000 
R_mid_hand03 0.000000 0.000000 0.000000 0.000000 0.000000 0.000000 10.000000 
spine02 0.000000 0.000000 0.000000 0.000000 0.000000 0.000000 10.000000 
spine03 0.000000 0.000000 0.000000 0.000000 0.000000 0.000000 10.000000 
pelvis 0.000000 0.000000 0.000000 0.000000 0.000000 0.000000 10.000000 
null_rope03_connect 0.000000 0.000000 0.000000 0.000000 0.000000 0.000000 10.000000 
null_rope04_connect 0.000000 0.000000 0.000000 0.000000 0.000000 0.000000 10.000000 
Rope3_Seg01 0.000000 0.000000 0.000000 0.000000 0.000000 0.000000 10.000000 
Rope3_Seg02 0.000000 0.000000 0.000000 0.000000 0.000000 0.000000 10.000000 
Rope3_Seg03 0.000000 0.000000 0.000000 0.000000 0.000000 0.000000 10.000000 
Rope3_Seg04 0.000000 0.000000 0.000000 0.000000 0.000000 0.000000 10.000000 
Rope3_Seg05 0.000000 0.000000 0.000000 0.000000 0.000000 0.000000 10.000000 
Rope3_Seg06 0.000000 0.000000 0.000000 0.000000 0.000000 0.000000 10.000000 
Rope3_Seg07 0.000000 0.000000 0.000000 0.000000 0.000000 0.000000 10.000000 
Rope3_Seg08 0.000000 0.000000 0.000000 0.000000 0.000000 0.000000 10.000000 
Rope3_Seg09 0.000000 0.000000 0.000000 0.000000 0.000000 0.000000 10.000000 
R_rear_hand01 0.000000 0.000000 0.000000 0.000000 0.000000 0.000000 10.000000 
R_rear_hand02 0.000000 0.000000 0.000000 0.000000 0.000000 0.000000 10.000000 
R_rear_hand03 0.000000 0.000000 0.000000 0.000000 0.000000 0.000000 10.000000 
Rope4_Seg01 0.000000 0.000000 0.000000 0.000000 0.000000 0.000000 10.000000 
Rope4_Seg02 0.000000 0.000000 0.000000 0.000000 0.000000 0.000000 10.000000 
Rope4_Seg03 0.000000 0.000000 0.000000 0.000000 0.000000 0.000000 10.000000 
Rope4_Seg04 0.000000 0.000000 0.000000 0.000000 0.000000 0.000000 10.000000 
Rope4_Seg05 0.000000 0.000000 0.000000 0.000000 0.000000 0.000000 10.000000 
Rope4_Seg06 0.000000 0.000000 0.000000 0.000000 0.000000 0.000000 10.000000 
Rope4_Seg07 0.000000 0.000000 0.000000 0.000000 0.000000 0.000000 10.000000 
Rope4_Seg08 0.000000 0.000000 0.000000 0.000000 0.000000 0.000000 10.000000 
Rope4_Seg09 0.000000 0.000000 0.000000 0.000000 0.000000 0.000000 10.000000 
L_rear_hand01 0.000000 0.000000 0.000000 0.000000 0.000000 0.000000 10.000000 
L_rear_hand02 0.000000 0.000000 0.000000 0.000000 0.000000 0.000000 10.000000 
L_rear_hand03 0.000000 0.000000 0.000000 0.000000 0.000000 0.000000 10.000000 
#Beginning of Data. Separated by tabs
#Fr	Tx	Ty	Tz	Rx	Ry	Rz	SF
[MASTER]
21 -2391.125244 0.000361 0.000000 0.002347 0.000000 89.997704 2391.125244
22 -2496.926270 0.000377 0.000000 0.002347 0.000000 89.997704 2496.926270
[root]
21 -62.822117 16.502380 1361.539795 -161.492920 -33.182564 171.123322 1363.088257
22 -62.822109 16.502380 1388.179443 -146.657562 -32.964233 168.712921 1389.698242
[chest]
21 -84.512650 -34.090519 0.000000 -71.463280 8.165611 -173.744003 91.129311
22 -84.512650 -34.090519 0.000000 -58.199688 6.481342 -174.433014 91.129311
[L_mid_tent01]
21 27.368212 22.138062 -250.360107 -23.084145 19.004313 37.514164 252.822647
22 27.345257 22.151184 -250.212692 -16.314634 26.646465 50.285763 252.675339
[R_mid_tent01]
21 23.228794 24.509907 226.238495 -144.118195 -19.341230 22.332069 228.744751
22 23.228794 24.509907 226.238495 -155.848129 -33.680386 37.779537 228.744751
[spine01]
21 -0.361383 -0.195265 0.000000 28.914154 0.202631 4.115204 0.410763
22 -0.361383 -0.195265 0.000000 19.533400 -0.034852 8.031775 0.410763
[Bip01_Neck]
21 165.484543 71.581718 0.000119 175.896118 1.177290 24.871183 180.302734
22 165.484543 71.581718 0.000119 175.896118 1.177290 24.871183 180.302734
[L_humerus]
21 -13.983130 -135.272980 -120.471481 170.940796 81.564224 -99.189163 181.680161
22 -13.983130 -135.272980 -120.471481 170.940796 81.564224 -99.189163 181.680161
[R_humerus]
21 -13.983309 -135.273102 125.287651 -159.666046 -68.957870 -101.166077 184.909012
22 -13.983309 -135.273102 125.287651 -159.666046 -68.957870 -101.166077 184.909012
[weapon_bone]
21 235.964890 -300.705902 0.000000 0.000000 -89.951546 -128.212341 382.234833
22 235.964890 -300.705902 0.000000 0.000000 -89.951546 -128.212341 382.234833
[Bip01_Head]
21 261.355896 108.959473 -2.864098 2.248029 5.843377 -62.458344 283.173584
22 261.355896 108.959480 -2.864093 2.248029 5.843375 -62.458332 283.173584
[eye_left_bone]
21 -24.626970 125.451866 -64.772606 0.000000 -90.000000 -99.840431 143.318359
22 -24.626970 125.451866 -64.772606 0.000000 -90.000000 -99.840431 143.318359
[eye_right_bone]
21 -24.626970 125.451866 64.327362 0.000000 -89.960434 80.159386 143.117676
22 -24.626970 125.451866 64.327362 0.000000 -89.960434 80.159386 143.117676
[L_forearm]
21 322.776093 0.000000 -0.000119 0.000471 0.002300 -66.859383 322.776093
22 322.776093 0.000000 -0.000119 0.000471 0.002300 -66.859398 322.776093
[L_front_hand]
21 241.149185 -0.042021 -3.300071 -178.667953 -1.835447 -27.422342 241.171753
22 241.149185 -0.042021 -3.300071 -178.667953 -1.835447 -27.422350 241.171753
[L_weapon_bone]
21 156.183838 0.000000 0.000000 0.001660 0.001660 0.001660 156.183838
22 156.183838 0.000000 0.000000 0.001660 0.001660 0.001660 156.183838
[L_front_hand01_01]
21 86.095154 20.947098 -0.655860 0.045167 -0.597612 33.319950 88.609184
22 86.095154 20.947098 -0.655860 0.002744 -0.598747 37.445904 88.609184
[L_front_hand02_01]
21 86.935165 -11.437475 24.513514 121.427963 -29.798750 -17.238909 91.046425
22 86.935165 -11.437475 24.513514 122.775948 -33.294907 -19.813314 91.046425
[L_front_hand03_01]
21 86.637497 -14.123976 -20.424902 -122.619110 28.348423 -19.574911 90.126129
22 86.637497 -14.123976 -20.424902 -123.929443 31.799667 -22.190067 90.126129
[L_front_hand01_02]
21 71.020905 -0.000179 0.000030 0.000569 0.002277 -61.966709 71.020905
22 71.020905 -0.000179 0.000030 0.000478 0.002298 -66.516052 71.020905
[L_front_hand02_02]
21 71.020927 -0.000119 0.000060 0.000569 0.002277 -61.966709 71.020927
22 71.020927 -0.000119 0.000060 0.000478 0.002298 -66.516052 71.020927
[L_front_hand03_02]
21 71.020905 -0.000060 0.000060 0.000569 0.002277 -61.966709 71.020905
22 71.020905 -0.000060 0.000060 0.000478 0.002298 -66.516052 71.020905
[R_forearm]
21 322.776428 -0.000060 0.000030 0.199694 -0.075621 -69.903069 322.776428
22 322.776428 -0.000060 0.000030 0.199694 -0.075621 -69.903069 322.776428
[R_front_hand]
21 238.847015 -0.006795 2.210259 -1.531694 0.790216 -51.443054 238.857239
22 238.847015 -0.006795 2.210259 -1.531694 0.790216 -51.443054 238.857239
[R_weapon_bone]
21 155.664093 0.002503 -0.000030 0.003487 0.001180 -90.988930 155.664078
22 155.664093 0.002503 -0.000030 0.003487 0.001180 -90.988930 155.664078
[R_front_hand01_01]
21 87.624611 14.231146 22.918642 -121.475159 -29.924141 17.436392 91.683487
22 87.624611 14.231146 22.918642 -122.830460 -33.418301 20.016569 91.683487
[R_front_hand02_01]
21 89.356956 14.367283 -19.491137 122.769302 28.731085 20.101265 92.579636
22 89.356956 14.367283 -19.491137 124.106987 32.175575 22.738485 92.579636
[R_front_hand03_01]
21 87.286232 -22.307278 -0.143439 -0.164033 -0.425185 -33.701946 90.091743
22 87.286232 -22.307278 -0.143439 -0.134609 -0.434106 -37.827873 90.091743
[R_front_hand01_02]
21 71.020905 0.000060 0.000119 0.002277 0.000569 61.964821 71.020905
22 71.020905 0.000060 0.000119 0.002298 0.000478 66.520027 71.020905
[R_front_hand02_02]
21 71.020844 -0.000030 -0.000119 0.002277 0.000569 61.964821 71.020836
22 71.020844 -0.000030 -0.000119 0.002298 0.000478 66.520027 71.020836
[R_front_hand03_02]
21 71.020905 0.000000 0.000030 0.002277 0.000569 61.964821 71.020905
22 71.020905 0.000000 0.000030 0.002298 0.000478 66.520027 71.020905
[null_rope01_connect]
21 328.732483 0.000000 -0.000238 -148.677673 15.796711 -139.143005 328.732483
22 328.732483 0.000000 -0.000238 -143.777054 4.123279 -154.349197 328.732483
[Rope1_Seg01]
21 0.000000 0.000000 0.000000 -17.479650 5.865317 148.813660 0.000000
22 0.000000 0.000000 0.000000 -20.867350 24.816948 145.441391 0.000000
[Rope1_Seg02]
21 139.999863 -0.000179 0.000000 -3.368147 20.676258 -35.726830 139.999863
22 139.999863 -0.000179 0.000000 4.353806 16.507238 -38.107620 139.999863
[Rope1_Seg03]
21 139.999924 0.000060 -0.000060 5.497537 7.206878 -14.647578 139.999924
22 139.999924 0.000060 -0.000060 8.093993 3.646540 -10.998956 139.999924
[Rope1_Seg04]
21 139.999924 -0.000060 -0.000119 3.956902 7.331676 -10.740297 139.999924
22 139.999924 -0.000060 -0.000119 15.031382 7.398834 -13.899000 139.999924
[Rope1_Seg05]
21 139.999832 0.000119 -0.000060 29.341509 8.612484 -12.646502 139.999832
22 139.999832 0.000119 -0.000060 82.857536 3.004472 -13.069124 139.999832
[Rope1_Seg06]
21 139.999954 0.000119 -0.000060 120.853119 0.304332 -9.524108 139.999954
22 139.999954 0.000119 -0.000060 36.828133 -7.473174 -2.437186 139.999954
[Rope1_Seg07]
21 139.999985 0.000060 0.000000 8.799144 -5.580276 3.128330 139.999985
22 139.999985 0.000060 0.000000 8.684671 -4.989593 1.692895 139.999985
[Rope1_Seg09]
21 121.602913 0.000119 -0.000089 -89.793175 -1.359789 0.847147 121.602913
22 121.602913 0.000119 -0.000089 -89.793175 -1.359789 0.847147 121.602913
[L_mid_hand01]
21 103.859421 1.038730 8.195221 105.318970 -20.241947 -5.944750 104.187431
22 103.859421 1.038730 8.195221 105.476997 -21.698414 -6.376460 104.187431
[L_mid_hand02]
21 105.572853 -4.139662 -10.864139 -138.730484 18.460613 -19.249084 106.211075
22 105.572853 -4.139662 -10.864139 -139.121078 19.457188 -20.452526 106.211075
[L_mid_hand03]
21 104.641464 17.579376 -3.913581 -17.677298 6.395949 23.170801 106.179977
22 104.641464 17.579376 -3.913581 -17.511391 6.856476 24.618546 106.179977
[null_rope02_connect]
21 328.732849 0.000179 -0.000119 41.093262 53.380676 129.679489 328.732849
22 328.732849 0.000179 -0.000119 33.797688 67.249939 142.282806 328.732849
[Rope2_Seg01]
21 0.000069 0.000107 0.000023 -56.631237 20.623713 -163.558075 0.000129
22 0.000074 0.000108 0.000018 -67.321251 34.276844 -165.321060 0.000132
[Rope2_Seg02]
21 139.999741 -0.000060 -0.000119 -3.209946 14.418011 -3.621500 139.999756
22 139.999741 -0.000060 -0.000119 -11.033182 20.717266 0.236595 139.999756
[Rope2_Seg03]
21 140.000107 0.000030 0.000000 -12.970232 20.244694 -3.521598 140.000107
22 140.000107 0.000030 0.000000 -31.391783 19.700378 6.614175 140.000107
[Rope2_Seg04]
21 139.999802 0.000000 -0.000060 -68.930435 20.306156 1.463531 139.999802
22 139.999802 0.000000 -0.000060 -49.308273 16.120953 13.454672 139.999802
[Rope2_Seg05]
21 139.999985 -0.000060 0.000119 -66.658279 10.262397 18.969423 139.999985
22 139.999985 -0.000060 0.000119 -34.556957 4.642470 20.597061 139.999985
[Rope2_Seg06]
21 139.999893 -0.000030 -0.000119 -11.744562 -8.680295 12.047310 139.999893
22 139.999893 -0.000030 -0.000119 -8.209807 -4.128780 9.048945 139.999893
[Rope2_Seg07]
21 139.999893 0.000060 -0.000060 -2.561292 -5.676391 4.805590 139.999893
22 139.999893 0.000060 -0.000060 -3.021325 -2.980163 4.471177 139.999893
[Rope2_Seg09]
21 121.338966 0.000089 -0.000060 33.793236 -1.359788 -0.847141 121.338966
22 121.338966 0.000089 -0.000060 33.793236 -1.359788 -0.847141 121.338966
[R_mid_hand01]
21 104.680779 11.144459 -10.335981 -44.664528 18.070995 20.156975 105.778534
22 104.680779 11.144459 -10.335981 -44.355274 18.974573 21.124483 105.778534
[R_mid_hand02]
21 104.070427 2.443552 8.231699 74.434563 -22.435429 6.604714 104.424065
22 104.070427 2.443552 8.231699 74.289070 -23.678041 6.979428 104.424065
[R_mid_hand03]
21 106.028137 -11.221827 -5.996406 -166.228409 7.848495 -26.405989 106.788818
22 106.028137 -11.221827 -5.996406 -166.402725 8.152507 -27.673399 106.788818
[spine02]
21 129.756927 0.001550 0.000119 -0.245322 -4.052060 -4.355547 129.756927
22 129.756927 0.001550 0.000119 -0.245322 -4.052059 -4.355546 129.756927
[spine03]
21 78.613861 0.087128 -4.898705 0.369659 4.260734 -4.885720 78.766388
22 78.613869 0.087128 -4.898700 0.369659 4.260734 -4.885720 78.766396
[pelvis]
21 169.435242 0.051022 0.000000 -0.010007 -0.191417 -1.897554 169.435257
22 169.435242 0.051022 0.000000 -0.010007 -0.191417 -1.897554 169.435257
[null_rope03_connect]
21 -1.257226 -2.466202 137.391083 -136.823746 -42.066956 -94.326973 137.418976
22 -1.257226 -2.466202 137.391083 -132.887619 -45.451073 -102.755669 137.418976
[null_rope04_connect]
21 -1.259640 -2.480268 -137.844437 -136.823746 -42.066956 -94.326973 137.872513
22 -1.259640 -2.480268 -137.844437 -132.887619 -45.451073 -102.755669 137.872513
[Rope3_Seg01]
21 0.000000 0.000000 0.000000 -2.440243 -22.307190 -34.959965 0.000000
22 0.000000 0.000000 0.000000 1.692905 -27.152670 -44.153400 0.000000
[Rope3_Seg02]
21 139.999924 -0.000119 0.000060 4.976790 11.626309 9.209912 139.999924
22 139.999924 -0.000119 0.000060 2.879062 11.506163 13.687819 139.999924
[Rope3_Seg03]
21 139.999924 -0.000119 0.000119 37.951244 26.573219 19.728859 139.999924
22 139.999924 -0.000119 0.000119 22.331282 23.739857 31.591606 139.999924
[Rope3_Seg04]
21 139.999924 0.000119 0.000000 88.473251 35.047543 0.624321 139.999924
22 139.999924 0.000119 0.000000 147.208572 30.037994 21.549009 139.999924
[Rope3_Seg05]
21 139.999924 -0.000238 0.000060 15.004036 0.577006 -28.157391 139.999924
22 139.999924 -0.000238 0.000060 5.164001 -12.695316 -24.435686 139.999924
[Rope3_Seg06]
21 139.999893 -0.000119 -0.000060 3.518923 -3.760007 -14.922931 139.999893
22 139.999893 -0.000119 -0.000060 1.210048 -5.888728 -9.843704 139.999893
[Rope3_Seg07]
21 139.999771 0.000060 -0.000119 1.222789 -1.878916 -6.189824 139.999771
22 139.999771 0.000060 -0.000119 0.772387 -2.591381 -4.523736 139.999771
[Rope3_Seg08]
21 139.999985 -0.000060 0.000000 0.798413 -1.054385 -3.240808 139.999985
22 139.999985 -0.000060 0.000000 0.635472 -1.429416 -2.425107 139.999985
[Rope3_Seg09]
21 90.185997 -0.000179 -0.000060 89.793228 -1.359877 -0.847183 90.185997
22 90.185997 -0.000179 -0.000060 89.793228 -1.359877 -0.847183 90.185997
[R_rear_hand01]
21 103.366196 -6.073594 -10.757982 -159.090073 13.386786 -20.616554 104.101845
22 103.366196 -6.073594 -10.757982 -159.598709 14.167138 -22.751802 104.101845
[R_rear_hand02]
21 100.509819 12.039542 -7.992327 -36.626534 13.642225 20.623665 101.543350
22 100.509819 12.039542 -7.992327 -36.171692 14.961147 22.465162 101.543350
[R_rear_hand03]
21 101.539970 5.215704 5.435467 83.895897 -21.276398 6.086509 101.819031
22 101.539970 5.215704 5.435467 83.795952 -23.482494 6.345252 101.819031
[Rope4_Seg01]
21 -0.000031 0.000000 -0.000122 -102.184677 -69.798256 -112.318001 0.000126
22 -0.000030 0.000000 -0.000128 -89.268036 -62.798248 -125.697937 0.000132
[Rope4_Seg02]
21 139.999985 0.000060 0.000119 -7.336391 -3.007789 -27.034918 139.999985
22 139.999985 0.000060 0.000119 -4.780330 -2.564496 -29.752264 139.999985
[Rope4_Seg03]
21 139.999924 0.000000 -0.000238 -36.220867 3.521589 -56.858982 139.999924
22 139.999924 0.000000 -0.000238 -30.222752 2.434695 -57.613400 139.999924
[Rope4_Seg04]
21 139.999985 0.000000 0.000119 -15.706220 13.901740 -20.446007 139.999985
22 139.999985 0.000000 0.000119 -14.388705 10.277492 -20.314066 139.999985
[Rope4_Seg05]
21 139.999802 -0.000060 -0.000119 -6.273774 4.860798 -11.232855 139.999802
22 139.999802 -0.000060 -0.000119 -7.776507 5.001713 -12.877178 139.999802
[Rope4_Seg06]
21 139.999924 0.000000 0.000060 -4.579615 3.897653 -8.317915 139.999924
22 139.999924 0.000000 0.000060 -5.557156 4.632957 -8.973402 139.999924
[Rope4_Seg07]
21 139.999802 0.000000 0.000000 -2.454905 3.326069 -4.282088 139.999802
22 139.999802 0.000000 0.000000 -2.875021 3.550519 -4.607638 139.999802
[Rope4_Seg08]
21 139.999924 0.000000 0.000119 -2.898936 2.096389 -2.486035 139.999924
22 139.999924 0.000000 0.000119 -3.112771 2.236560 -2.627580 139.999924
[Rope4_Seg09]
21 90.185791 0.000060 0.000060 -135.617828 2.228885 0.850567 90.185791
22 90.185791 0.000060 0.000060 -135.617828 2.228885 0.850567 90.185791
[L_rear_hand01]
21 101.696655 -8.392275 -7.654577 -37.097984 -12.101351 161.488007 102.329041
22 101.696655 -8.392275 -7.654577 -36.675041 -13.498219 159.575958 102.329041
[L_rear_hand02]
21 102.726799 -1.568258 5.773216 83.993034 18.721008 174.203247 102.900848
22 102.726799 -1.568258 5.773216 83.906593 21.035519 173.944992 102.900848
[L_rear_hand03]
21 104.552910 9.721220 -10.420293 -158.537842 -12.454073 -161.844238 105.519653
22 104.552910 9.721220 -10.420293 -159.035812 -13.298707 -159.616318 105.519653
